<svg width="488" height="454" viewBox="0 0 488 454" fill="none" xmlns="http://www.w3.org/2000/svg">
<g clip-path="url(#clip0_211_10)">
<path d="M486.882 205.122C481.638 154.232 457.98 104.63 416.032 65.885L397.436 83.2931C440.217 122.839 461.595 174.849 461.611 226.989C461.611 230.218 461.525 233.446 461.361 236.675C458.887 285.077 437.957 332.731 398.461 369.738L417.188 387.031C458.499 348.351 481.749 299.119 486.902 248.659C487.637 241.452 488.004 234.216 488 226.988C488.004 219.695 487.628 212.394 486.882 205.122Z" fill="#161D6B"/>
<path d="M346.554 268.977C352.858 255.612 356.122 241.3 356.118 226.989C356.126 200.199 345.066 173.3 323.046 152.96L304.45 170.384C321.303 185.967 329.706 206.41 329.729 226.989C329.706 247.38 321.459 267.661 304.848 283.231L323.57 300.531H323.574H323.577C333.575 291.165 341.165 280.416 346.554 268.977Z" fill="#161D6B"/>
<path d="M369.539 109.415L350.943 126.839C380.755 154.4 395.654 190.629 395.669 226.988C395.654 263.029 381.02 298.96 351.646 326.485L370.382 343.785C404.831 311.519 422.067 269.188 422.059 226.988C422.067 184.418 404.519 141.731 369.539 109.415Z" fill="#161D6B"/>
<path d="M26.6389 217.302C29.1132 168.892 50.0419 121.246 89.5394 84.2463L70.8191 66.9456C23.6061 111.146 -0.0161948 169.133 8.3299e-06 226.989C-0.0161948 285.34 24.0283 343.807 71.9676 388.115L90.564 370.699C47.783 331.153 26.4044 279.129 26.3892 226.989C26.3892 223.76 26.475 220.524 26.6389 217.302Z" fill="#161D6B"/>
<path d="M136.345 127.493L117.624 110.201C83.1764 142.445 65.9334 184.782 65.9496 226.989C65.9496 232.313 66.2193 237.635 66.7655 242.937C70.5913 280.068 87.8553 316.283 118.461 344.564L137.064 327.14C107.236 299.58 92.3531 263.349 92.3378 226.989C92.354 190.949 106.978 155.011 136.345 127.493Z" fill="#161D6B"/>
<path d="M158.271 226.989C158.295 206.598 166.549 186.324 183.152 170.762L164.43 153.455C142.739 173.744 131.874 200.432 131.882 226.989C131.874 253.773 142.934 280.671 164.953 301.019L183.557 283.609C168.803 269.953 160.525 252.594 158.672 234.691C158.407 232.131 158.275 229.556 158.271 226.989Z" fill="#161D6B"/>
<path d="M243.894 196.308C225.673 196.359 210.955 210.147 211.017 227.098C211.08 244.049 225.893 257.743 244.113 257.692C262.333 257.634 277.052 243.846 276.99 226.894C276.928 209.943 262.115 196.257 243.894 196.308Z" fill="#161D6B"/>
</g>
<defs>
<clipPath id="clip0_211_10">
<rect width="488" height="454" fill="white"/>
</clipPath>
</defs>
</svg>
